<?xml version="1.0" encoding="UTF-8"?>
<svg id="Layer_1" xmlns="http://www.w3.org/2000/svg" version="1.1" viewBox="0 0 1440 60">
  <!-- Generator: Adobe Illustrator 29.7.1, SVG Export Plug-In . SVG Version: 2.1.1 Build 8)  -->
  <g>
    <g>
      <g>
        <path d="M29.18,52.42L2.26,25.5,20.2,7.57l26.92,26.92-17.93,17.93ZM5.57,25.5l23.61,23.61,14.63-14.63L20.2,10.88l-14.63,14.63Z" fill="#1a1a1a"/>
        <path d="M20.2,52.42L2.26,34.49,29.18,7.57l17.93,17.93-26.92,26.92ZM5.57,34.49l14.63,14.63,23.61-23.61-14.63-14.63L5.57,34.49Z" fill="#1a1a1a"/>
        <path d="M25.08,38.1l-8.5-7.71,7.71-8.5,8.5,7.71-7.71,8.5ZM19.88,30.23l5.04,4.57,4.57-5.04-5.04-4.57-4.57,5.04Z" fill="#1a1a1a"/>
      </g>
      <g>
        <path d="M71.08,52.43l-26.92-26.92L62.09,7.59l26.92,26.92-17.93,17.93ZM47.47,25.52l23.61,23.61,14.63-14.63-23.61-23.61-14.63,14.63Z" fill="#1a1a1a"/>
        <path d="M62.09,52.43l-17.93-17.93,26.92-26.92,17.93,17.93-26.92,26.92ZM47.47,34.5l14.63,14.63,23.61-23.61-14.63-14.63-23.61,23.61Z" fill="#1a1a1a"/>
        <path d="M66.98,38.12l-8.5-7.71,7.71-8.5,8.5,7.71-7.71,8.5ZM61.78,30.25l5.04,4.57,4.57-5.04-5.04-4.57-4.57,5.04Z" fill="#1a1a1a"/>
        <path d="M53.45,52.27h-18.06l8.75-9.65,9.31,9.65ZM40.67,49.93h7.28l-3.75-3.89-3.53,3.89Z" fill="#1a1a1a"/>
        <path d="M44.14,17.37l-8.75-9.65h18.06l-9.31,9.65ZM40.67,10.06l3.53,3.89,3.75-3.89h-7.28Z" fill="#1a1a1a"/>
      </g>
    </g>
    <g>
      <g>
        <path d="M113.17,52.42l-26.92-26.92,17.93-17.93,26.92,26.92-17.93,17.93ZM89.56,25.5l23.61,23.61,14.63-14.63-23.61-23.61-14.63,14.63Z" fill="#1a1a1a"/>
        <path d="M104.18,52.42l-17.93-17.93,26.92-26.92,17.93,17.93-26.92,26.92ZM89.56,34.49l14.63,14.63,23.61-23.61-14.63-14.63-23.61,23.61Z" fill="#1a1a1a"/>
        <path d="M109.07,38.1l-8.5-7.71,7.71-8.5,8.5,7.71-7.71,8.5ZM103.87,30.23l5.04,4.57,4.57-5.04-5.04-4.57-4.57,5.04Z" fill="#1a1a1a"/>
        <path d="M97.35,52.26h-18.06l8.75-9.65,9.31,9.65ZM84.56,49.92h7.28l-3.75-3.89-3.53,3.89Z" fill="#1a1a1a"/>
        <path d="M88.04,17.38l-8.75-9.65h18.06l-9.31,9.65ZM84.56,10.07l3.53,3.89,3.75-3.89h-7.28Z" fill="#1a1a1a"/>
      </g>
      <g>
        <path d="M155.42,52.44l-26.92-26.92,17.93-17.93,26.92,26.92-17.93,17.93ZM131.81,25.53l23.61,23.61,14.63-14.63-23.61-23.61-14.63,14.63Z" fill="#1a1a1a"/>
        <path d="M146.44,52.44l-17.93-17.93,26.92-26.92,17.93,17.93-26.92,26.92ZM131.81,34.51l14.63,14.63,23.61-23.61-14.63-14.63-23.61,23.61Z" fill="#1a1a1a"/>
        <path d="M151.32,38.13l-8.5-7.71,7.71-8.5,8.5,7.71-7.71,8.5ZM146.12,30.25l5.04,4.57,4.57-5.04-5.04-4.57-4.57,5.04Z" fill="#1a1a1a"/>
        <path d="M139.24,51.93h-18.06l8.75-9.65,9.31,9.65ZM126.46,49.6h7.28l-3.75-3.89-3.53,3.89Z" fill="#1a1a1a"/>
        <path d="M129.94,17.37l-8.75-9.65h18.06l-9.31,9.65ZM126.46,10.06l3.53,3.89,3.75-3.89h-7.28Z" fill="#1a1a1a"/>
      </g>
    </g>
    <g>
      <g>
        <path d="M197.96,52.43l-26.92-26.92,17.93-17.93,26.92,26.92-17.93,17.93ZM174.35,25.51l23.61,23.61,14.63-14.63-23.61-23.61-14.63,14.63Z" fill="#1a1a1a"/>
        <path d="M188.98,52.43l-17.93-17.93,26.92-26.92,17.93,17.93-26.92,26.92ZM174.35,34.49l14.63,14.63,23.61-23.61-14.63-14.63-23.61,23.61Z" fill="#1a1a1a"/>
        <path d="M193.86,38.11l-8.5-7.71,7.71-8.5,8.5,7.71-7.71,8.5ZM188.66,30.24l5.04,4.57,4.57-5.04-5.04-4.57-4.57,5.04Z" fill="#1a1a1a"/>
        <path d="M180.33,52.26h-18.06l8.75-9.65,9.31,9.65ZM167.55,49.92h7.28l-3.75-3.89-3.53,3.89Z" fill="#1a1a1a"/>
        <path d="M171.03,17.36l-8.75-9.65h18.06l-9.31,9.65ZM167.55,10.05l3.53,3.89,3.75-3.89h-7.28Z" fill="#1a1a1a"/>
      </g>
      <g>
        <path d="M239.86,52.44l-26.92-26.92,17.93-17.93,26.92,26.92-17.93,17.93ZM216.25,25.53l23.61,23.61,14.63-14.63-23.61-23.61-14.63,14.63Z" fill="#1a1a1a"/>
        <path d="M230.87,52.44l-17.93-17.93,26.92-26.92,17.93,17.93-26.92,26.92ZM216.25,34.51l14.63,14.63,23.61-23.61-14.63-14.63-23.61,23.61Z" fill="#1a1a1a"/>
        <path d="M235.76,38.13l-8.5-7.71,7.71-8.5,8.5,7.71-7.71,8.5ZM230.56,30.25l5.04,4.57,4.57-5.04-5.04-4.57-4.57,5.04Z" fill="#1a1a1a"/>
        <path d="M222.23,52.27h-18.06l8.75-9.65,9.31,9.65ZM209.45,49.94h7.28l-3.75-3.89-3.53,3.89Z" fill="#1a1a1a"/>
        <path d="M212.92,17.38l-8.75-9.65h18.06l-9.31,9.65ZM209.45,10.07l3.53,3.89,3.75-3.89h-7.28Z" fill="#1a1a1a"/>
      </g>
    </g>
    <g>
      <g>
        <path d="M281.95,52.43l-26.92-26.92,17.93-17.93,26.92,26.92-17.93,17.93ZM258.34,25.51l23.61,23.61,14.63-14.63-23.61-23.61-14.63,14.63Z" fill="#1a1a1a"/>
        <path d="M272.96,52.43l-17.93-17.93,26.92-26.92,17.93,17.93-26.92,26.92ZM258.34,34.49l14.63,14.63,23.61-23.61-14.63-14.63-23.61,23.61Z" fill="#1a1a1a"/>
        <path d="M277.85,38.11l-8.5-7.71,7.71-8.5,8.5,7.71-7.71,8.5ZM272.65,30.24l5.04,4.57,4.57-5.04-5.04-4.57-4.57,5.04Z" fill="#1a1a1a"/>
        <path d="M266.13,52.27h-18.06l8.75-9.65,9.31,9.65ZM253.34,49.93h7.28l-3.75-3.89-3.53,3.89Z" fill="#1a1a1a"/>
        <path d="M256.82,17.39l-8.75-9.65h18.06l-9.31,9.65ZM253.34,10.08l3.53,3.89,3.75-3.89h-7.28Z" fill="#1a1a1a"/>
      </g>
      <g>
        <path d="M324.2,52.45l-26.92-26.92,17.93-17.93,26.92,26.92-17.93,17.93ZM300.59,25.54l23.61,23.61,14.63-14.63-23.61-23.61-14.63,14.63Z" fill="#1a1a1a"/>
        <path d="M315.22,52.45l-17.93-17.93,26.92-26.92,17.93,17.93-26.92,26.92ZM300.59,34.52l14.63,14.63,23.61-23.61-14.63-14.63-23.61,23.61Z" fill="#1a1a1a"/>
        <path d="M320.1,38.13l-8.5-7.71,7.71-8.5,8.5,7.71-7.71,8.5ZM314.9,30.26l5.04,4.57,4.57-5.04-5.04-4.57-4.57,5.04Z" fill="#1a1a1a"/>
        <path d="M308.02,51.94h-18.06l8.75-9.65,9.31,9.65ZM295.24,49.61h7.28l-3.75-3.89-3.53,3.89Z" fill="#1a1a1a"/>
        <path d="M298.72,17.38l-8.75-9.65h18.06l-9.31,9.65ZM295.24,10.07l3.53,3.89,3.75-3.89h-7.28Z" fill="#1a1a1a"/>
      </g>
    </g>
  </g>
  <g>
    <g>
      <g>
        <path d="M366.25,52.43l-26.92-26.92,17.93-17.93,26.92,26.92-17.93,17.93ZM342.64,25.52l23.61,23.61,14.63-14.63-23.61-23.61-14.63,14.63Z" fill="#1a1a1a"/>
        <path d="M357.27,52.43l-17.93-17.93,26.92-26.92,17.93,17.93-26.92,26.92ZM342.64,34.5l14.63,14.63,23.61-23.61-14.63-14.63-23.61,23.61Z" fill="#1a1a1a"/>
        <path d="M362.16,38.12l-8.5-7.71,7.71-8.5,8.5,7.71-7.71,8.5ZM356.96,30.25l5.04,4.57,4.57-5.04-5.04-4.57-4.57,5.04Z" fill="#1a1a1a"/>
      </g>
      <g>
        <path d="M408.15,52.45l-26.92-26.92,17.93-17.93,26.92,26.92-17.93,17.93ZM384.54,25.54l23.61,23.61,14.63-14.63-23.61-23.61-14.63,14.63Z" fill="#1a1a1a"/>
        <path d="M399.17,52.45l-17.93-17.93,26.92-26.92,17.93,17.93-26.92,26.92ZM384.54,34.52l14.63,14.63,23.61-23.61-14.63-14.63-23.61,23.61Z" fill="#1a1a1a"/>
        <path d="M404.05,38.13l-8.5-7.71,7.71-8.5,8.5,7.71-7.71,8.5ZM398.85,30.26l5.04,4.57,4.57-5.04-5.04-4.57-4.57,5.04Z" fill="#1a1a1a"/>
        <path d="M390.52,52.28h-18.06l8.75-9.65,9.31,9.65ZM377.74,49.94h7.28l-3.75-3.89-3.53,3.89Z" fill="#1a1a1a"/>
        <path d="M350,51.94h-18.06l8.75-9.65,9.31,9.65ZM337.22,49.6h7.28l-3.75-3.89-3.53,3.89Z" fill="#1a1a1a"/>
        <path d="M381.22,17.39l-8.75-9.65h18.06l-9.31,9.65ZM377.74,10.08l3.53,3.89,3.75-3.89h-7.28Z" fill="#1a1a1a"/>
        <path d="M340.81,17.38l-8.75-9.65h18.06l-9.31,9.65ZM337.33,10.07l3.53,3.89,3.75-3.89h-7.28Z" fill="#1a1a1a"/>
      </g>
    </g>
    <g>
      <g>
        <path d="M450.24,52.43l-26.92-26.92,17.93-17.93,26.92,26.92-17.93,17.93ZM426.63,25.52l23.61,23.61,14.63-14.63-23.61-23.61-14.63,14.63Z" fill="#1a1a1a"/>
        <path d="M441.26,52.43l-17.93-17.93,26.92-26.92,17.93,17.93-26.92,26.92ZM426.63,34.5l14.63,14.63,23.61-23.61-14.63-14.63-23.61,23.61Z" fill="#1a1a1a"/>
        <path d="M446.14,38.12l-8.5-7.71,7.71-8.5,8.5,7.71-7.71,8.5ZM440.94,30.25l5.04,4.57,4.57-5.04-5.04-4.57-4.57,5.04Z" fill="#1a1a1a"/>
        <path d="M434.42,52.27h-18.06l8.75-9.65,9.31,9.65ZM421.64,49.94h7.28l-3.75-3.89-3.53,3.89Z" fill="#1a1a1a"/>
        <path d="M425.11,17.4l-8.75-9.65h18.06l-9.31,9.65ZM421.64,10.08l3.53,3.89,3.75-3.89h-7.28Z" fill="#1a1a1a"/>
      </g>
      <g>
        <path d="M492.49,52.46l-26.92-26.92,17.93-17.93,26.92,26.92-17.93,17.93ZM468.88,25.54l23.61,23.61,14.63-14.63-23.61-23.61-14.63,14.63Z" fill="#1a1a1a"/>
        <path d="M483.51,52.46l-17.93-17.93,26.92-26.92,17.93,17.93-26.92,26.92ZM468.88,34.53l14.63,14.63,23.61-23.61-14.63-14.63-23.61,23.61Z" fill="#1a1a1a"/>
        <path d="M488.4,38.14l-8.5-7.71,7.71-8.5,8.5,7.71-7.71,8.5ZM483.2,30.27l5.04,4.57,4.57-5.04-5.04-4.57-4.57,5.04Z" fill="#1a1a1a"/>
        <path d="M476.32,51.95h-18.06l8.75-9.65,9.31,9.65ZM463.53,49.61h7.28l-3.75-3.89-3.53,3.89Z" fill="#1a1a1a"/>
        <path d="M467.01,17.39l-8.75-9.65h18.06l-9.31,9.65ZM463.53,10.08l3.53,3.89,3.75-3.89h-7.28Z" fill="#1a1a1a"/>
      </g>
    </g>
    <g>
      <g>
        <path d="M535.03,52.44l-26.92-26.92,17.93-17.93,26.92,26.92-17.93,17.93ZM511.42,25.53l23.61,23.61,14.63-14.63-23.61-23.61-14.63,14.63Z" fill="#1a1a1a"/>
        <path d="M526.05,52.44l-17.93-17.93,26.92-26.92,17.93,17.93-26.92,26.92ZM511.42,34.51l14.63,14.63,23.61-23.61-14.63-14.63-23.61,23.61Z" fill="#1a1a1a"/>
        <path d="M530.94,38.12l-8.5-7.71,7.71-8.5,8.5,7.71-7.71,8.5ZM525.74,30.25l5.04,4.57,4.57-5.04-5.04-4.57-4.57,5.04Z" fill="#1a1a1a"/>
        <path d="M517.41,52.27h-18.06l8.75-9.65,9.31,9.65ZM504.62,49.94h7.28l-3.75-3.89-3.53,3.89Z" fill="#1a1a1a"/>
        <path d="M508.1,17.38l-8.75-9.65h18.06l-9.31,9.65ZM504.62,10.07l3.53,3.89,3.75-3.89h-7.28Z" fill="#1a1a1a"/>
      </g>
      <g>
        <path d="M576.93,52.46l-26.92-26.92,17.93-17.93,26.92,26.92-17.93,17.93ZM553.32,25.54l23.61,23.61,14.63-14.63-23.61-23.61-14.63,14.63Z" fill="#1a1a1a"/>
        <path d="M567.95,52.46l-17.93-17.93,26.92-26.92,17.93,17.93-26.92,26.92ZM553.32,34.53l14.63,14.63,23.61-23.61-14.63-14.63-23.61,23.61Z" fill="#1a1a1a"/>
        <path d="M572.83,38.14l-8.5-7.71,7.71-8.5,8.5,7.71-7.71,8.5ZM567.63,30.27l5.04,4.57,4.57-5.04-5.04-4.57-4.57,5.04Z" fill="#1a1a1a"/>
        <path d="M559.3,52.29h-18.06l8.75-9.65,9.31,9.65ZM546.52,49.95h7.28l-3.75-3.89-3.53,3.89Z" fill="#1a1a1a"/>
        <path d="M550,17.4l-8.75-9.65h18.06l-9.31,9.65ZM546.52,10.08l3.53,3.89,3.75-3.89h-7.28Z" fill="#1a1a1a"/>
      </g>
    </g>
    <g>
      <g>
        <path d="M619.02,52.44l-26.92-26.92,17.93-17.93,26.92,26.92-17.93,17.93ZM595.41,25.53l23.61,23.61,14.63-14.63-23.61-23.61-14.63,14.63Z" fill="#1a1a1a"/>
        <path d="M610.04,52.44l-17.93-17.93,26.92-26.92,17.93,17.93-26.92,26.92ZM595.41,34.51l14.63,14.63,23.61-23.61-14.63-14.63-23.61,23.61Z" fill="#1a1a1a"/>
        <path d="M614.92,38.12l-8.5-7.71,7.71-8.5,8.5,7.71-7.71,8.5ZM609.72,30.25l5.04,4.57,4.57-5.04-5.04-4.57-4.57,5.04Z" fill="#1a1a1a"/>
        <path d="M603.2,52.28h-18.06l8.75-9.65,9.31,9.65ZM590.42,49.94h7.28l-3.75-3.89-3.53,3.89Z" fill="#1a1a1a"/>
        <path d="M593.89,17.41l-8.75-9.65h18.06l-9.31,9.65ZM590.42,10.09l3.53,3.89,3.75-3.89h-7.28Z" fill="#1a1a1a"/>
      </g>
      <g>
        <path d="M661.27,52.47l-26.92-26.92,17.93-17.93,26.92,26.92-17.93,17.93ZM637.66,25.55l23.61,23.61,14.63-14.63-23.61-23.61-14.63,14.63Z" fill="#1a1a1a"/>
        <path d="M652.29,52.47l-17.93-17.93,26.92-26.92,17.93,17.93-26.92,26.92ZM637.66,34.54l14.63,14.63,23.61-23.61-14.63-14.63-23.61,23.61Z" fill="#1a1a1a"/>
        <path d="M657.18,38.15l-8.5-7.71,7.71-8.5,8.5,7.71-7.71,8.5ZM651.98,30.28l5.04,4.57,4.57-5.04-5.04-4.57-4.57,5.04Z" fill="#1a1a1a"/>
        <path d="M645.1,51.96h-18.06l8.75-9.65,9.31,9.65ZM632.31,49.62h7.28l-3.75-3.89-3.53,3.89Z" fill="#1a1a1a"/>
        <path d="M635.79,17.4l-8.75-9.65h18.06l-9.31,9.65ZM632.31,10.08l3.53,3.89,3.75-3.89h-7.28Z" fill="#1a1a1a"/>
      </g>
    </g>
  </g>
  <g>
    <g>
      <g>
        <path d="M703.81,52.62l-26.92-26.92,17.93-17.93,26.92,26.92-17.93,17.93ZM680.2,25.71l23.61,23.61,14.63-14.63-23.61-23.61-14.63,14.63Z" fill="#1a1a1a"/>
        <path d="M694.83,52.62l-17.93-17.93,26.92-26.92,17.93,17.93-26.92,26.92ZM680.2,34.69l14.63,14.63,23.61-23.61-14.63-14.63-23.61,23.61Z" fill="#1a1a1a"/>
        <path d="M699.72,38.3l-8.5-7.71,7.71-8.5,8.5,7.71-7.71,8.5ZM694.52,30.43l5.04,4.57,4.57-5.04-5.04-4.57-4.57,5.04Z" fill="#1a1a1a"/>
      </g>
      <g>
        <path d="M745.71,52.64l-26.92-26.92,17.93-17.93,26.92,26.92-17.93,17.93ZM722.1,25.72l23.61,23.61,14.63-14.63-23.61-23.61-14.63,14.63Z" fill="#1a1a1a"/>
        <path d="M736.73,52.64l-17.93-17.93,26.92-26.92,17.93,17.93-26.92,26.92ZM722.1,34.71l14.63,14.63,23.61-23.61-14.63-14.63-23.61,23.61Z" fill="#1a1a1a"/>
        <path d="M741.61,38.32l-8.5-7.71,7.71-8.5,8.5,7.71-7.71,8.5ZM736.41,30.45l5.04,4.57,4.57-5.04-5.04-4.57-4.57,5.04Z" fill="#1a1a1a"/>
        <path d="M728.08,52.47h-18.06l8.75-9.65,9.31,9.65ZM715.3,50.13h7.28l-3.75-3.89-3.53,3.89Z" fill="#1a1a1a"/>
        <path d="M687.56,52.13h-18.06l8.75-9.65,9.31,9.65ZM674.78,49.79h7.28l-3.75-3.89-3.53,3.89Z" fill="#1a1a1a"/>
        <path d="M718.77,17.57l-8.75-9.65h18.06l-9.31,9.65ZM715.3,10.26l3.53,3.89,3.75-3.89h-7.28Z" fill="#1a1a1a"/>
        <path d="M678.37,17.57l-8.75-9.65h18.06l-9.31,9.65ZM674.89,10.25l3.53,3.89,3.75-3.89h-7.28Z" fill="#1a1a1a"/>
      </g>
    </g>
    <g>
      <g>
        <path d="M787.8,52.62l-26.92-26.92,17.93-17.93,26.92,26.92-17.93,17.93ZM764.19,25.71l23.61,23.61,14.63-14.63-23.61-23.61-14.63,14.63Z" fill="#1a1a1a"/>
        <path d="M778.82,52.62l-17.93-17.93,26.92-26.92,17.93,17.93-26.92,26.92ZM764.19,34.69l14.63,14.63,23.61-23.61-14.63-14.63-23.61,23.61Z" fill="#1a1a1a"/>
        <path d="M783.7,38.3l-8.5-7.71,7.71-8.5,8.5,7.71-7.71,8.5ZM778.5,30.43l5.04,4.57,4.57-5.04-5.04-4.57-4.57,5.04Z" fill="#1a1a1a"/>
        <path d="M771.98,52.46h-18.06l8.75-9.65,9.31,9.65ZM759.2,50.12h7.28l-3.75-3.89-3.53,3.89Z" fill="#1a1a1a"/>
        <path d="M762.67,17.58l-8.75-9.65h18.06l-9.31,9.65ZM759.2,10.27l3.53,3.89,3.75-3.89h-7.28Z" fill="#1a1a1a"/>
      </g>
      <g>
        <path d="M830.05,52.65l-26.92-26.92,17.93-17.93,26.92,26.92-17.93,17.93ZM806.44,25.73l23.61,23.61,14.63-14.63-23.61-23.61-14.63,14.63Z" fill="#1a1a1a"/>
        <path d="M821.07,52.65l-17.93-17.93,26.92-26.92,17.93,17.93-26.92,26.92ZM806.44,34.71l14.63,14.63,23.61-23.61-14.63-14.63-23.61,23.61Z" fill="#1a1a1a"/>
        <path d="M825.96,38.33l-8.5-7.71,7.71-8.5,8.5,7.71-7.71,8.5ZM820.76,30.46l5.04,4.57,4.57-5.04-5.04-4.57-4.57,5.04Z" fill="#1a1a1a"/>
        <path d="M813.88,52.14h-18.06l8.75-9.65,9.31,9.65ZM801.09,49.8h7.28l-3.75-3.89-3.53,3.89Z" fill="#1a1a1a"/>
        <path d="M804.57,17.57l-8.75-9.65h18.06l-9.31,9.65ZM801.09,10.26l3.53,3.89,3.75-3.89h-7.28Z" fill="#1a1a1a"/>
      </g>
    </g>
    <g>
      <g>
        <path d="M872.59,52.63l-26.92-26.92,17.93-17.93,26.92,26.92-17.93,17.93ZM848.98,25.71l23.61,23.61,14.63-14.63-23.61-23.61-14.63,14.63Z" fill="#1a1a1a"/>
        <path d="M863.61,52.63l-17.93-17.93,26.92-26.92,17.93,17.93-26.92,26.92ZM848.98,34.7l14.63,14.63,23.61-23.61-14.63-14.63-23.61,23.61Z" fill="#1a1a1a"/>
        <path d="M868.5,38.31l-8.5-7.71,7.71-8.5,8.5,7.71-7.71,8.5ZM863.3,30.44l5.04,4.57,4.57-5.04-5.04-4.57-4.57,5.04Z" fill="#1a1a1a"/>
        <path d="M854.97,52.46h-18.06l8.75-9.65,9.31,9.65ZM842.18,50.12h7.28l-3.75-3.89-3.53,3.89Z" fill="#1a1a1a"/>
        <path d="M845.66,17.57l-8.75-9.65h18.06l-9.31,9.65ZM842.18,10.25l3.53,3.89,3.75-3.89h-7.28Z" fill="#1a1a1a"/>
      </g>
      <g>
        <path d="M914.49,52.65l-26.92-26.92,17.93-17.93,26.92,26.92-17.93,17.93ZM890.88,25.73l23.61,23.61,14.63-14.63-23.61-23.61-14.63,14.63Z" fill="#1a1a1a"/>
        <path d="M905.51,52.65l-17.93-17.93,26.92-26.92,17.93,17.93-26.92,26.92ZM890.88,34.71l14.63,14.63,23.61-23.61-14.63-14.63-23.61,23.61Z" fill="#1a1a1a"/>
        <path d="M910.39,38.33l-8.5-7.71,7.71-8.5,8.5,7.71-7.71,8.5ZM905.19,30.46l5.04,4.57,4.57-5.04-5.04-4.57-4.57,5.04Z" fill="#1a1a1a"/>
        <path d="M896.86,52.48h-18.06l8.75-9.65,9.31,9.65ZM884.08,50.14h7.28l-3.75-3.89-3.53,3.89Z" fill="#1a1a1a"/>
        <path d="M887.55,17.58l-8.75-9.65h18.06l-9.31,9.65ZM884.08,10.27l3.53,3.89,3.75-3.89h-7.28Z" fill="#1a1a1a"/>
      </g>
    </g>
    <g>
      <g>
        <path d="M956.58,52.63l-26.92-26.92,17.93-17.93,26.92,26.92-17.93,17.93ZM932.97,25.71l23.61,23.61,14.63-14.63-23.61-23.61-14.63,14.63Z" fill="#1a1a1a"/>
        <path d="M947.6,52.63l-17.93-17.93,26.92-26.92,17.93,17.93-26.92,26.92ZM932.97,34.7l14.63,14.63,23.61-23.61-14.63-14.63-23.61,23.61Z" fill="#1a1a1a"/>
        <path d="M952.48,38.31l-8.5-7.71,7.71-8.5,8.5,7.71-7.71,8.5ZM947.28,30.44l5.04,4.57,4.57-5.04-5.04-4.57-4.57,5.04Z" fill="#1a1a1a"/>
        <path d="M940.76,52.47h-18.06l8.75-9.65,9.31,9.65ZM927.98,50.13h7.28l-3.75-3.89-3.53,3.89Z" fill="#1a1a1a"/>
        <path d="M931.45,17.59l-8.75-9.65h18.06l-9.31,9.65ZM927.98,10.28l3.53,3.89,3.75-3.89h-7.28Z" fill="#1a1a1a"/>
      </g>
      <g>
        <path d="M998.83,52.65l-26.92-26.92,17.93-17.93,26.92,26.92-17.93,17.93ZM975.22,25.74l23.61,23.61,14.63-14.63-23.61-23.61-14.63,14.63Z" fill="#1a1a1a"/>
        <path d="M989.85,52.65l-17.93-17.93,26.92-26.92,17.93,17.93-26.92,26.92ZM975.22,34.72l14.63,14.63,23.61-23.61-14.63-14.63-23.61,23.61Z" fill="#1a1a1a"/>
        <path d="M994.74,38.34l-8.5-7.71,7.71-8.5,8.5,7.71-7.71,8.5ZM989.54,30.47l5.04,4.57,4.57-5.04-5.04-4.57-4.57,5.04Z" fill="#1a1a1a"/>
        <path d="M982.66,52.15h-18.06l8.75-9.65,9.31,9.65ZM969.87,49.81h7.28l-3.75-3.89-3.53,3.89Z" fill="#1a1a1a"/>
        <path d="M973.35,17.58l-8.75-9.65h18.06l-9.31,9.65ZM969.87,10.27l3.53,3.89,3.75-3.89h-7.28Z" fill="#1a1a1a"/>
      </g>
    </g>
  </g>
  <g>
    <g>
      <g>
        <path d="M1041.88,52.78l-26.92-26.92,17.93-17.93,26.92,26.92-17.93,17.93ZM1018.27,25.87l23.61,23.61,14.63-14.63-23.61-23.61-14.63,14.63Z" fill="#1a1a1a"/>
        <path d="M1032.9,52.78l-17.93-17.93,26.92-26.92,17.93,17.93-26.92,26.92ZM1018.27,34.85l14.63,14.63,23.61-23.61-14.63-14.63-23.61,23.61Z" fill="#1a1a1a"/>
        <path d="M1037.78,38.46l-8.5-7.71,7.71-8.5,8.5,7.71-7.71,8.5ZM1032.58,30.59l5.04,4.57,4.57-5.04-5.04-4.57-4.57,5.04Z" fill="#1a1a1a"/>
      </g>
      <g>
        <path d="M1083.77,52.8l-26.92-26.92,17.93-17.93,26.92,26.92-17.93,17.93ZM1060.16,25.88l23.61,23.61,14.63-14.63-23.61-23.61-14.63,14.63Z" fill="#1a1a1a"/>
        <path d="M1074.79,52.8l-17.93-17.93,26.92-26.92,17.93,17.93-26.92,26.92ZM1060.16,34.87l14.63,14.63,23.61-23.61-14.63-14.63-23.61,23.61Z" fill="#1a1a1a"/>
        <path d="M1079.68,38.48l-8.5-7.71,7.71-8.5,8.5,7.71-7.71,8.5ZM1074.48,30.61l5.04,4.57,4.57-5.04-5.04-4.57-4.57,5.04Z" fill="#1a1a1a"/>
        <path d="M1066.15,52.63h-18.06l8.75-9.65,9.31,9.65ZM1053.36,50.29h7.28l-3.75-3.89-3.53,3.89Z" fill="#1a1a1a"/>
        <path d="M1025.63,52.29h-18.06l8.75-9.65,9.31,9.65ZM1012.84,49.95h7.28l-3.75-3.89-3.53,3.89Z" fill="#1a1a1a"/>
        <path d="M1056.84,17.73l-8.75-9.65h18.06l-9.31,9.65ZM1053.36,10.42l3.53,3.89,3.75-3.89h-7.28Z" fill="#1a1a1a"/>
        <path d="M1016.43,17.73l-8.75-9.65h18.06l-9.31,9.65ZM1012.96,10.41l3.53,3.89,3.75-3.89h-7.28Z" fill="#1a1a1a"/>
      </g>
    </g>
    <g>
      <g>
        <path d="M1125.86,52.78l-26.92-26.92,17.93-17.93,26.92,26.92-17.93,17.93ZM1102.25,25.87l23.61,23.61,14.63-14.63-23.61-23.61-14.63,14.63Z" fill="#1a1a1a"/>
        <path d="M1116.88,52.78l-17.93-17.93,26.92-26.92,17.93,17.93-26.92,26.92ZM1102.25,34.85l14.63,14.63,23.61-23.61-14.63-14.63-23.61,23.61Z" fill="#1a1a1a"/>
        <path d="M1121.77,38.46l-8.5-7.71,7.71-8.5,8.5,7.71-7.71,8.5ZM1116.57,30.59l5.04,4.57,4.57-5.04-5.04-4.57-4.57,5.04Z" fill="#1a1a1a"/>
        <path d="M1110.05,52.62h-18.06l8.75-9.65,9.31,9.65ZM1097.26,50.28h7.28l-3.75-3.89-3.53,3.89Z" fill="#1a1a1a"/>
        <path d="M1100.74,17.74l-8.75-9.65h18.06l-9.31,9.65ZM1097.26,10.43l3.53,3.89,3.75-3.89h-7.28Z" fill="#1a1a1a"/>
      </g>
      <g>
        <path d="M1168.12,52.81l-26.92-26.92,17.93-17.93,26.92,26.92-17.93,17.93ZM1144.51,25.89l23.61,23.61,14.63-14.63-23.61-23.61-14.63,14.63Z" fill="#1a1a1a"/>
        <path d="M1159.14,52.81l-17.93-17.93,26.92-26.92,17.93,17.93-26.92,26.92ZM1144.51,34.87l14.63,14.63,23.61-23.61-14.63-14.63-23.61,23.61Z" fill="#1a1a1a"/>
        <path d="M1164.02,38.49l-8.5-7.71,7.71-8.5,8.5,7.71-7.71,8.5ZM1158.82,30.62l5.04,4.57,4.57-5.04-5.04-4.57-4.57,5.04Z" fill="#1a1a1a"/>
        <path d="M1151.94,52.3h-18.06l8.75-9.65,9.31,9.65ZM1139.16,49.96h7.28l-3.75-3.89-3.53,3.89Z" fill="#1a1a1a"/>
        <path d="M1142.63,17.73l-8.75-9.65h18.06l-9.31,9.65ZM1139.16,10.42l3.53,3.89,3.75-3.89h-7.28Z" fill="#1a1a1a"/>
      </g>
    </g>
    <g>
      <g>
        <path d="M1210.66,52.79l-26.92-26.92,17.93-17.93,26.92,26.92-17.93,17.93ZM1187.05,25.87l23.61,23.61,14.63-14.63-23.61-23.61-14.63,14.63Z" fill="#1a1a1a"/>
        <path d="M1201.67,52.79l-17.93-17.93,26.92-26.92,17.93,17.93-26.92,26.92ZM1187.05,34.86l14.63,14.63,23.61-23.61-14.63-14.63-23.61,23.61Z" fill="#1a1a1a"/>
        <path d="M1206.56,38.47l-8.5-7.71,7.71-8.5,8.5,7.71-7.71,8.5ZM1201.36,30.6l5.04,4.57,4.57-5.04-5.04-4.57-4.57,5.04Z" fill="#1a1a1a"/>
        <path d="M1193.03,52.62h-18.06l8.75-9.65,9.31,9.65ZM1180.25,50.28h7.28l-3.75-3.89-3.53,3.89Z" fill="#1a1a1a"/>
        <path d="M1183.72,17.73l-8.75-9.65h18.06l-9.31,9.65ZM1180.25,10.41l3.53,3.89,3.75-3.89h-7.28Z" fill="#1a1a1a"/>
      </g>
      <g>
        <path d="M1252.55,52.81l-26.92-26.92,17.93-17.93,26.92,26.92-17.93,17.93ZM1228.94,25.89l23.61,23.61,14.63-14.63-23.61-23.61-14.63,14.63Z" fill="#1a1a1a"/>
        <path d="M1243.57,52.81l-17.93-17.93,26.92-26.92,17.93,17.93-26.92,26.92ZM1228.94,34.87l14.63,14.63,23.61-23.61-14.63-14.63-23.61,23.61Z" fill="#1a1a1a"/>
        <path d="M1248.46,38.49l-8.5-7.71,7.71-8.5,8.5,7.71-7.71,8.5ZM1243.26,30.62l5.04,4.57,4.57-5.04-5.04-4.57-4.57,5.04Z" fill="#1a1a1a"/>
        <path d="M1234.93,52.64h-18.06l8.75-9.65,9.31,9.65ZM1222.14,50.3h7.28l-3.75-3.89-3.53,3.89Z" fill="#1a1a1a"/>
        <path d="M1225.62,17.74l-8.75-9.65h18.06l-9.31,9.65ZM1222.14,10.43l3.53,3.89,3.75-3.89h-7.28Z" fill="#1a1a1a"/>
      </g>
    </g>
    <g>
      <g>
        <path d="M1294.64,52.79l-26.92-26.92,17.93-17.93,26.92,26.92-17.93,17.93ZM1271.03,25.87l23.61,23.61,14.63-14.63-23.61-23.61-14.63,14.63Z" fill="#1a1a1a"/>
        <path d="M1285.66,52.79l-17.93-17.93,26.92-26.92,17.93,17.93-26.92,26.92ZM1271.03,34.86l14.63,14.63,23.61-23.61-14.63-14.63-23.61,23.61Z" fill="#1a1a1a"/>
        <path d="M1290.55,38.47l-8.5-7.71,7.71-8.5,8.5,7.71-7.71,8.5ZM1285.35,30.6l5.04,4.57,4.57-5.04-5.04-4.57-4.57,5.04Z" fill="#1a1a1a"/>
        <path d="M1278.83,52.63h-18.06l8.75-9.65,9.31,9.65ZM1266.04,50.29h7.28l-3.75-3.89-3.53,3.89Z" fill="#1a1a1a"/>
        <path d="M1269.52,17.75l-8.75-9.65h18.06l-9.31,9.65ZM1266.04,10.44l3.53,3.89,3.75-3.89h-7.28Z" fill="#1a1a1a"/>
      </g>
      <g>
        <path d="M1336.9,52.81l-26.92-26.92,17.93-17.93,26.92,26.92-17.93,17.93ZM1313.29,25.9l23.61,23.61,14.63-14.63-23.61-23.61-14.63,14.63Z" fill="#1a1a1a"/>
        <path d="M1327.91,52.81l-17.93-17.93,26.92-26.92,17.93,17.93-26.92,26.92ZM1313.29,34.88l14.63,14.63,23.61-23.61-14.63-14.63-23.61,23.61Z" fill="#1a1a1a"/>
        <path d="M1332.8,38.5l-8.5-7.71,7.71-8.5,8.5,7.71-7.71,8.5ZM1327.6,30.63l5.04,4.57,4.57-5.04-5.04-4.57-4.57,5.04Z" fill="#1a1a1a"/>
        <path d="M1320.72,52.31h-18.06l8.75-9.65,9.31,9.65ZM1307.94,49.97h7.28l-3.75-3.89-3.53,3.89Z" fill="#1a1a1a"/>
        <path d="M1311.41,17.74l-8.75-9.65h18.06l-9.31,9.65ZM1307.94,10.43l3.53,3.89,3.75-3.89h-7.28Z" fill="#1a1a1a"/>
      </g>
    </g>
  </g>
  <g>
    <g>
      <path d="M1379.44,52.97l-26.92-26.92,17.93-17.93,26.92,26.92-17.93,17.93ZM1355.83,26.05l23.61,23.61,14.63-14.63-23.61-23.61-14.63,14.63Z" fill="#1a1a1a"/>
      <path d="M1370.45,52.97l-17.93-17.93,26.92-26.92,17.93,17.93-26.92,26.92ZM1355.83,35.04l14.63,14.63,23.61-23.61-14.63-14.63-23.61,23.61Z" fill="#1a1a1a"/>
      <path d="M1375.34,38.65l-8.5-7.71,7.71-8.5,8.5,7.71-7.71,8.5ZM1370.14,30.78l5.04,4.57,4.57-5.04-5.04-4.57-4.57,5.04Z" fill="#1a1a1a"/>
    </g>
    <g>
      <path d="M1421.33,52.98l-26.92-26.92,17.93-17.93,26.92,26.92-17.93,17.93ZM1397.72,26.07l23.61,23.61,14.63-14.63-23.61-23.61-14.63,14.63Z" fill="#1a1a1a"/>
      <path d="M1412.35,52.98l-17.93-17.93,26.92-26.92,17.93,17.93-26.92,26.92ZM1397.72,35.05l14.63,14.63,23.61-23.61-14.63-14.63-23.61,23.61Z" fill="#1a1a1a"/>
      <path d="M1417.24,38.67l-8.5-7.71,7.71-8.5,8.5,7.71-7.71,8.5ZM1412.04,30.79l5.04,4.57,4.57-5.04-5.04-4.57-4.57,5.04Z" fill="#1a1a1a"/>
      <path d="M1403.7,52.81h-18.06l8.75-9.65,9.31,9.65ZM1390.92,50.48h7.28l-3.75-3.89-3.53,3.89Z" fill="#1a1a1a"/>
      <path d="M1363.18,52.47h-18.06l8.75-9.65,9.31,9.65ZM1350.4,50.14h7.28l-3.75-3.89-3.53,3.89Z" fill="#1a1a1a"/>
      <path d="M1394.4,17.92l-8.75-9.65h18.06l-9.31,9.65ZM1390.92,10.61l3.53,3.89,3.75-3.89h-7.28Z" fill="#1a1a1a"/>
      <path d="M1353.99,17.91l-8.75-9.65h18.06l-9.31,9.65ZM1350.51,10.6l3.53,3.89,3.75-3.89h-7.28Z" fill="#1a1a1a"/>
    </g>
  </g>
</svg>