<?xml version="1.0" encoding="UTF-8"?>
<svg id="Layer_1" xmlns="http://www.w3.org/2000/svg" version="1.1" viewBox="0 0 1440 60">
  <!-- Generator: Adobe Illustrator 29.7.1, SVG Export Plug-In . SVG Version: 2.1.1 Build 8)  -->
  <g opacity=".7">
    <g>
      <g>
        <g>
          <path d="M25.79,53.14L-1.18,26.17,16.79,8.2l26.97,26.97-17.97,17.97ZM2.13,26.17l23.66,23.66,14.66-14.66L16.79,11.51,2.13,26.17Z" fill="#c1272d"/>
          <path d="M16.79,53.14L-1.18,35.17,25.79,8.2l17.97,17.97-26.97,26.97ZM2.13,35.17l14.66,14.66,23.66-23.66-14.66-14.66L2.13,35.17Z" fill="#c1272d"/>
          <path d="M21.68,38.79l-8.52-7.73,7.73-8.52,8.52,7.73-7.73,8.52ZM16.47,30.91l5.05,4.58,4.58-5.05-5.05-4.58-4.58,5.05Z" fill="#c1272d"/>
        </g>
        <g>
          <path d="M67.77,53.16l-26.97-26.97,17.97-17.97,26.97,26.97-17.97,17.97ZM44.11,26.19l23.66,23.66,14.66-14.66-23.66-23.66-14.66,14.66Z" fill="#c1272d"/>
          <path d="M58.77,53.16l-17.97-17.97,26.97-26.97,17.97,17.97-26.97,26.97ZM44.11,35.19l14.66,14.66,23.66-23.66-14.66-14.66-23.66,23.66Z" fill="#c1272d"/>
          <path d="M63.67,38.81l-8.52-7.73,7.73-8.52,8.52,7.73-7.73,8.52ZM58.46,30.92l5.05,4.58,4.58-5.05-5.05-4.58-4.58,5.05Z" fill="#c1272d"/>
          <path d="M50.11,52.99h-18.1l8.77-9.67,9.33,9.67ZM37.3,50.65h7.3l-3.76-3.9-3.54,3.9Z" fill="#c1272d"/>
          <path d="M40.78,18.02l-8.77-9.67h18.1l-9.33,9.67ZM37.3,10.69l3.54,3.9,3.76-3.9h-7.3Z" fill="#c1272d"/>
        </g>
      </g>
      <g>
        <g>
          <path d="M109.95,53.14l-26.97-26.97,17.97-17.97,26.97,26.97-17.97,17.97ZM86.29,26.17l23.66,23.66,14.66-14.66-23.66-23.66-14.66,14.66Z" fill="#c1272d"/>
          <path d="M100.95,53.14l-17.97-17.97,26.97-26.97,17.97,17.97-26.97,26.97ZM86.29,35.17l14.66,14.66,23.66-23.66-14.66-14.66-23.66,23.66Z" fill="#c1272d"/>
          <path d="M105.84,38.79l-8.52-7.73,7.73-8.52,8.52,7.73-7.73,8.52ZM100.63,30.91l5.05,4.58,4.58-5.05-5.05-4.58-4.58,5.05Z" fill="#c1272d"/>
          <path d="M94.1,52.98h-18.1l8.77-9.67,9.33,9.67ZM81.29,50.64h7.3l-3.76-3.9-3.54,3.9Z" fill="#c1272d"/>
          <path d="M84.77,18.03l-8.77-9.67h18.1l-9.33,9.67ZM81.29,10.7l3.54,3.9,3.76-3.9h-7.3Z" fill="#c1272d"/>
        </g>
        <g>
          <path d="M152.29,53.17l-26.97-26.97,17.97-17.97,26.97,26.97-17.97,17.97ZM128.63,26.19l23.66,23.66,14.66-14.66-23.66-23.66-14.66,14.66Z" fill="#c1272d"/>
          <path d="M143.29,53.17l-17.97-17.97,26.97-26.97,17.97,17.97-26.97,26.97ZM128.63,35.2l14.66,14.66,23.66-23.66-14.66-14.66-23.66,23.66Z" fill="#c1272d"/>
          <path d="M148.18,38.82l-8.52-7.73,7.73-8.52,8.52,7.73-7.73,8.52ZM142.97,30.93l5.05,4.58,4.58-5.05-5.05-4.58-4.58,5.05Z" fill="#c1272d"/>
          <path d="M136.08,52.66h-18.1l8.77-9.67,9.33,9.67ZM123.27,50.31h7.3l-3.76-3.9-3.54,3.9Z" fill="#c1272d"/>
          <path d="M126.75,18.02l-8.77-9.67h18.1l-9.33,9.67ZM123.27,10.69l3.54,3.9,3.76-3.9h-7.3Z" fill="#c1272d"/>
        </g>
      </g>
      <g>
        <g>
          <path d="M194.92,53.15l-26.97-26.97,17.97-17.97,26.97,26.97-17.97,17.97ZM171.26,26.18l23.66,23.66,14.66-14.66-23.66-23.66-14.66,14.66Z" fill="#c1272d"/>
          <path d="M185.92,53.15l-17.97-17.97,26.97-26.97,17.97,17.97-26.97,26.97ZM171.26,35.18l14.66,14.66,23.66-23.66-14.66-14.66-23.66,23.66Z" fill="#c1272d"/>
          <path d="M190.81,38.8l-8.52-7.73,7.73-8.52,8.52,7.73-7.73,8.52ZM185.6,30.91l5.05,4.58,4.58-5.05-5.05-4.58-4.58,5.05Z" fill="#c1272d"/>
          <path d="M177.25,52.98h-18.1l8.77-9.67,9.33,9.67ZM164.44,50.64h7.3l-3.76-3.9-3.54,3.9Z" fill="#c1272d"/>
          <path d="M167.93,18.01l-8.77-9.67h18.1l-9.33,9.67ZM164.44,10.69l3.54,3.9,3.76-3.9h-7.3Z" fill="#c1272d"/>
        </g>
        <g>
          <path d="M236.9,53.17l-26.97-26.97,17.97-17.97,26.97,26.97-17.97,17.97ZM213.24,26.19l23.66,23.66,14.66-14.66-23.66-23.66-14.66,14.66Z" fill="#c1272d"/>
          <path d="M227.9,53.17l-17.97-17.97,26.97-26.97,17.97,17.97-26.97,26.97ZM213.24,35.2l14.66,14.66,23.66-23.66-14.66-14.66-23.66,23.66Z" fill="#c1272d"/>
          <path d="M232.79,38.82l-8.52-7.73,7.73-8.52,8.52,7.73-7.73,8.52ZM227.58,30.93l5.05,4.58,4.58-5.05-5.05-4.58-4.58,5.05Z" fill="#c1272d"/>
          <path d="M219.24,53h-18.1l8.77-9.67,9.33,9.67ZM206.43,50.65h7.3l-3.76-3.9-3.54,3.9Z" fill="#c1272d"/>
          <path d="M209.91,18.03l-8.77-9.67h18.1l-9.33,9.67ZM206.43,10.7l3.54,3.9,3.76-3.9h-7.3Z" fill="#c1272d"/>
        </g>
      </g>
      <g>
        <g>
          <path d="M279.08,53.15l-26.97-26.97,17.97-17.97,26.97,26.97-17.97,17.97ZM255.42,26.18l23.66,23.66,14.66-14.66-23.66-23.66-14.66,14.66Z" fill="#c1272d"/>
          <path d="M270.08,53.15l-17.97-17.97,26.97-26.97,17.97,17.97-26.97,26.97ZM255.42,35.18l14.66,14.66,23.66-23.66-14.66-14.66-23.66,23.66Z" fill="#c1272d"/>
          <path d="M274.97,38.8l-8.52-7.73,7.73-8.52,8.52,7.73-7.73,8.52ZM269.76,30.91l5.05,4.58,4.58-5.05-5.05-4.58-4.58,5.05Z" fill="#c1272d"/>
          <path d="M263.23,52.99h-18.1l8.77-9.67,9.33,9.67ZM250.42,50.65h7.3l-3.76-3.9-3.54,3.9Z" fill="#c1272d"/>
          <path d="M253.9,18.04l-8.77-9.67h18.1l-9.33,9.67ZM250.42,10.71l3.54,3.9,3.76-3.9h-7.3Z" fill="#c1272d"/>
        </g>
        <g>
          <path d="M321.42,53.17l-26.97-26.97,17.97-17.97,26.97,26.97-17.97,17.97ZM297.76,26.2l23.66,23.66,14.66-14.66-23.66-23.66-14.66,14.66Z" fill="#c1272d"/>
          <path d="M312.42,53.17l-17.97-17.97,26.97-26.97,17.97,17.97-26.97,26.97ZM297.76,35.21l14.66,14.66,23.66-23.66-14.66-14.66-23.66,23.66Z" fill="#c1272d"/>
          <path d="M317.31,38.83l-8.52-7.73,7.73-8.52,8.52,7.73-7.73,8.52ZM312.1,30.94l5.05,4.58,4.58-5.05-5.05-4.58-4.58,5.05Z" fill="#c1272d"/>
          <path d="M305.21,52.66h-18.1l8.77-9.67,9.33,9.67ZM292.4,50.32h7.3l-3.76-3.9-3.54,3.9Z" fill="#c1272d"/>
          <path d="M295.88,18.03l-8.77-9.67h18.1l-9.33,9.67ZM292.4,10.7l3.54,3.9,3.76-3.9h-7.3Z" fill="#c1272d"/>
        </g>
      </g>
    </g>
    <g>
      <g>
        <g>
          <path d="M363.66,53.15l-26.97-26.97,17.97-17.97,26.97,26.97-17.97,17.97ZM340,26.18l23.66,23.66,14.66-14.66-23.66-23.66-14.66,14.66Z" fill="#c1272d"/>
          <path d="M354.66,53.15l-17.97-17.97,26.97-26.97,17.97,17.97-26.97,26.97ZM340,35.18l14.66,14.66,23.66-23.66-14.66-14.66-23.66,23.66Z" fill="#c1272d"/>
          <path d="M359.56,38.8l-8.52-7.73,7.73-8.52,8.52,7.73-7.73,8.52ZM354.35,30.91l5.05,4.58,4.58-5.05-5.05-4.58-4.58,5.05Z" fill="#c1272d"/>
          <path d="M346,52.98h-18.1l8.77-9.67,9.33,9.67ZM333.19,50.64h7.3l-3.76-3.9-3.54,3.9Z" fill="#c1272d"/>
          <path d="M336.67,18.01l-8.77-9.67h18.1l-9.33,9.67ZM333.19,10.69l3.54,3.9,3.76-3.9h-7.3Z" fill="#c1272d"/>
        </g>
        <g>
          <path d="M405.64,53.17l-26.97-26.97,17.97-17.97,26.97,26.97-17.97,17.97ZM381.98,26.19l23.66,23.66,14.66-14.66-23.66-23.66-14.66,14.66Z" fill="#c1272d"/>
          <path d="M396.64,53.17l-17.97-17.97,26.97-26.97,17.97,17.97-26.97,26.97ZM381.98,35.2l14.66,14.66,23.66-23.66-14.66-14.66-23.66,23.66Z" fill="#c1272d"/>
          <path d="M401.54,38.82l-8.52-7.73,7.73-8.52,8.52,7.73-7.73,8.52ZM396.33,30.93l5.05,4.58,4.58-5.05-5.05-4.58-4.58,5.05Z" fill="#c1272d"/>
          <path d="M387.98,53h-18.1l8.77-9.67,9.33,9.67ZM375.17,50.65h7.3l-3.76-3.9-3.54,3.9Z" fill="#c1272d"/>
          <path d="M378.65,18.03l-8.77-9.67h18.1l-9.33,9.67ZM375.17,10.7l3.54,3.9,3.76-3.9h-7.3Z" fill="#c1272d"/>
        </g>
      </g>
      <g>
        <g>
          <path d="M447.82,53.15l-26.97-26.97,17.97-17.97,26.97,26.97-17.97,17.97ZM424.16,26.18l23.66,23.66,14.66-14.66-23.66-23.66-14.66,14.66Z" fill="#c1272d"/>
          <path d="M438.82,53.15l-17.97-17.97,26.97-26.97,17.97,17.97-26.97,26.97ZM424.16,35.18l14.66,14.66,23.66-23.66-14.66-14.66-23.66,23.66Z" fill="#c1272d"/>
          <path d="M443.72,38.8l-8.52-7.73,7.73-8.52,8.52,7.73-7.73,8.52ZM438.51,30.91l5.05,4.58,4.58-5.05-5.05-4.58-4.58,5.05Z" fill="#c1272d"/>
          <path d="M431.97,52.99h-18.1l8.77-9.67,9.33,9.67ZM419.16,50.65h7.3l-3.76-3.9-3.54,3.9Z" fill="#c1272d"/>
          <path d="M422.64,18.04l-8.77-9.67h18.1l-9.33,9.67ZM419.16,10.71l3.54,3.9,3.76-3.9h-7.3Z" fill="#c1272d"/>
        </g>
        <g>
          <path d="M490.16,53.17l-26.97-26.97,17.97-17.97,26.97,26.97-17.97,17.97ZM466.5,26.2l23.66,23.66,14.66-14.66-23.66-23.66-14.66,14.66Z" fill="#c1272d"/>
          <path d="M481.16,53.17l-17.97-17.97,26.97-26.97,17.97,17.97-26.97,26.97ZM466.5,35.21l14.66,14.66,23.66-23.66-14.66-14.66-23.66,23.66Z" fill="#c1272d"/>
          <path d="M486.06,38.83l-8.52-7.73,7.73-8.52,8.52,7.73-7.73,8.52ZM480.85,30.94l5.05,4.58,4.58-5.05-5.05-4.58-4.58,5.05Z" fill="#c1272d"/>
          <path d="M473.95,52.66h-18.1l8.77-9.67,9.33,9.67ZM461.14,50.32h7.3l-3.76-3.9-3.54,3.9Z" fill="#c1272d"/>
          <path d="M464.63,18.03l-8.77-9.67h18.1l-9.33,9.67ZM461.14,10.7l3.54,3.9,3.76-3.9h-7.3Z" fill="#c1272d"/>
        </g>
      </g>
      <g>
        <g>
          <path d="M532.79,53.16l-26.97-26.97,17.97-17.97,26.97,26.97-17.97,17.97ZM509.13,26.19l23.66,23.66,14.66-14.66-23.66-23.66-14.66,14.66Z" fill="#c1272d"/>
          <path d="M523.79,53.16l-17.97-17.97,26.97-26.97,17.97,17.97-26.97,26.97ZM509.13,35.19l14.66,14.66,23.66-23.66-14.66-14.66-23.66,23.66Z" fill="#c1272d"/>
          <path d="M528.68,38.81l-8.52-7.73,7.73-8.52,8.52,7.73-7.73,8.52ZM523.47,30.92l5.05,4.58,4.58-5.05-5.05-4.58-4.58,5.05Z" fill="#c1272d"/>
          <path d="M515.13,52.99h-18.1l8.77-9.67,9.33,9.67ZM502.32,50.65h7.3l-3.76-3.9-3.54,3.9Z" fill="#c1272d"/>
          <path d="M505.8,18.02l-8.77-9.67h18.1l-9.33,9.67ZM502.32,10.69l3.54,3.9,3.76-3.9h-7.3Z" fill="#c1272d"/>
        </g>
        <g>
          <path d="M574.77,53.17l-26.97-26.97,17.97-17.97,26.97,26.97-17.97,17.97ZM551.11,26.2l23.66,23.66,14.66-14.66-23.66-23.66-14.66,14.66Z" fill="#c1272d"/>
          <path d="M565.77,53.17l-17.97-17.97,26.97-26.97,17.97,17.97-26.97,26.97ZM551.11,35.21l14.66,14.66,23.66-23.66-14.66-14.66-23.66,23.66Z" fill="#c1272d"/>
          <path d="M570.67,38.83l-8.52-7.73,7.73-8.52,8.52,7.73-7.73,8.52ZM565.46,30.94l5.05,4.58,4.58-5.05-5.05-4.58-4.58,5.05Z" fill="#c1272d"/>
          <path d="M557.11,53h-18.1l8.77-9.67,9.33,9.67ZM544.3,50.66h7.3l-3.76-3.9-3.54,3.9Z" fill="#c1272d"/>
          <path d="M547.78,18.04l-8.77-9.67h18.1l-9.33,9.67ZM544.3,10.71l3.54,3.9,3.76-3.9h-7.3Z" fill="#c1272d"/>
        </g>
      </g>
      <g>
        <g>
          <path d="M616.95,53.16l-26.97-26.97,17.97-17.97,26.97,26.97-17.97,17.97ZM593.29,26.19l23.66,23.66,14.66-14.66-23.66-23.66-14.66,14.66Z" fill="#c1272d"/>
          <path d="M607.95,53.16l-17.97-17.97,26.97-26.97,17.97,17.97-26.97,26.97ZM593.29,35.19l14.66,14.66,23.66-23.66-14.66-14.66-23.66,23.66Z" fill="#c1272d"/>
          <path d="M612.84,38.81l-8.52-7.73,7.73-8.52,8.52,7.73-7.73,8.52ZM607.63,30.92l5.05,4.58,4.58-5.05-5.05-4.58-4.58,5.05Z" fill="#c1272d"/>
          <path d="M601.1,53h-18.1l8.77-9.67,9.33,9.67ZM588.29,50.65h7.3l-3.76-3.9-3.54,3.9Z" fill="#c1272d"/>
          <path d="M591.77,18.05l-8.77-9.67h18.1l-9.33,9.67ZM588.29,10.72l3.54,3.9,3.76-3.9h-7.3Z" fill="#c1272d"/>
        </g>
        <g>
          <path d="M659.29,53.18l-26.97-26.97,17.97-17.97,26.97,26.97-17.97,17.97ZM635.63,26.21l23.66,23.66,14.66-14.66-23.66-23.66-14.66,14.66Z" fill="#c1272d"/>
          <path d="M650.29,53.18l-17.97-17.97,26.97-26.97,17.97,17.97-26.97,26.97ZM635.63,35.21l14.66,14.66,23.66-23.66-14.66-14.66-23.66,23.66Z" fill="#c1272d"/>
          <path d="M655.19,38.84l-8.52-7.73,7.73-8.52,8.52,7.73-7.73,8.52ZM649.98,30.95l5.05,4.58,4.58-5.05-5.05-4.58-4.58,5.05Z" fill="#c1272d"/>
          <path d="M643.08,52.67h-18.1l8.77-9.67,9.33,9.67ZM630.27,50.33h7.3l-3.76-3.9-3.54,3.9Z" fill="#c1272d"/>
          <path d="M633.76,18.04l-8.77-9.67h18.1l-9.33,9.67ZM630.27,10.71l3.54,3.9,3.76-3.9h-7.3Z" fill="#c1272d"/>
        </g>
      </g>
    </g>
    <g>
      <g>
        <g>
          <path d="M787.48,53.16l-26.97-26.97,17.97-17.97,26.97,26.97-17.97,17.97ZM763.82,26.19l23.66,23.66,14.66-14.66-23.66-23.66-14.66,14.66Z" fill="#c1272d"/>
          <path d="M778.48,53.16l-17.97-17.97,26.97-26.97,17.97,17.97-26.97,26.97ZM763.82,35.19l14.66,14.66,23.66-23.66-14.66-14.66-23.66,23.66Z" fill="#c1272d"/>
          <path d="M783.38,38.81l-8.52-7.73,7.73-8.52,8.52,7.73-7.73,8.52ZM778.17,30.92l5.05,4.58,4.58-5.05-5.05-4.58-4.58,5.05Z" fill="#c1272d"/>
          <path d="M769.82,52.99h-18.1l8.77-9.67,9.33,9.67ZM757.01,50.65h7.3l-3.76-3.9-3.54,3.9Z" fill="#c1272d"/>
          <path d="M760.49,18.02l-8.77-9.67h18.1l-9.33,9.67ZM757.01,10.69l3.54,3.9,3.76-3.9h-7.3Z" fill="#c1272d"/>
        </g>
        <g>
          <path d="M829.47,53.17l-26.97-26.97,17.97-17.97,26.97,26.97-17.97,17.97ZM805.81,26.2l23.66,23.66,14.66-14.66-23.66-23.66-14.66,14.66Z" fill="#c1272d"/>
          <path d="M820.46,53.17l-17.97-17.97,26.97-26.97,17.97,17.97-26.97,26.97ZM805.81,35.21l14.66,14.66,23.66-23.66-14.66-14.66-23.66,23.66Z" fill="#c1272d"/>
          <path d="M825.36,38.83l-8.52-7.73,7.73-8.52,8.52,7.73-7.73,8.52ZM820.15,30.94l5.05,4.58,4.58-5.05-5.05-4.58-4.58,5.05Z" fill="#c1272d"/>
          <path d="M811.8,53h-18.1l8.77-9.67,9.33,9.67ZM798.99,50.66h7.3l-3.76-3.9-3.54,3.9Z" fill="#c1272d"/>
          <path d="M802.48,18.04l-8.77-9.67h18.1l-9.33,9.67ZM798.99,10.71l3.54,3.9,3.76-3.9h-7.3Z" fill="#c1272d"/>
        </g>
      </g>
      <g>
        <g>
          <path d="M871.64,53.16l-26.97-26.97,17.97-17.97,26.97,26.97-17.97,17.97ZM847.98,26.19l23.66,23.66,14.66-14.66-23.66-23.66-14.66,14.66Z" fill="#c1272d"/>
          <path d="M862.64,53.16l-17.97-17.97,26.97-26.97,17.97,17.97-26.97,26.97ZM847.98,35.19l14.66,14.66,23.66-23.66-14.66-14.66-23.66,23.66Z" fill="#c1272d"/>
          <path d="M867.54,38.81l-8.52-7.73,7.73-8.52,8.52,7.73-7.73,8.52ZM862.33,30.92l5.05,4.58,4.58-5.05-5.05-4.58-4.58,5.05Z" fill="#c1272d"/>
          <path d="M855.79,53h-18.1l8.77-9.67,9.33,9.67ZM842.98,50.65h7.3l-3.76-3.9-3.54,3.9Z" fill="#c1272d"/>
          <path d="M846.47,18.05l-8.77-9.67h18.1l-9.33,9.67ZM842.98,10.72l3.54,3.9,3.76-3.9h-7.3Z" fill="#c1272d"/>
        </g>
        <g>
          <path d="M913.98,53.18l-26.97-26.97,17.97-17.97,26.97,26.97-17.97,17.97ZM890.33,26.21l23.66,23.66,14.66-14.66-23.66-23.66-14.66,14.66Z" fill="#c1272d"/>
          <path d="M904.98,53.18l-17.97-17.97,26.97-26.97,17.97,17.97-26.97,26.97ZM890.33,35.21l14.66,14.66,23.66-23.66-14.66-14.66-23.66,23.66Z" fill="#c1272d"/>
          <path d="M909.88,38.84l-8.52-7.73,7.73-8.52,8.52,7.73-7.73,8.52ZM904.67,30.95l5.05,4.58,4.58-5.05-5.05-4.58-4.58,5.05Z" fill="#c1272d"/>
          <path d="M897.77,52.67h-18.1l8.77-9.67,9.33,9.67ZM884.96,50.33h7.3l-3.76-3.9-3.54,3.9Z" fill="#c1272d"/>
          <path d="M888.45,18.04l-8.77-9.67h18.1l-9.33,9.67ZM884.96,10.71l3.54,3.9,3.76-3.9h-7.3Z" fill="#c1272d"/>
        </g>
      </g>
      <g>
        <g>
          <path d="M956.61,53.17l-26.97-26.97,17.97-17.97,26.97,26.97-17.97,17.97ZM932.95,26.19l23.66,23.66,14.66-14.66-23.66-23.66-14.66,14.66Z" fill="#c1272d"/>
          <path d="M947.61,53.17l-17.97-17.97,26.97-26.97,17.97,17.97-26.97,26.97ZM932.95,35.2l14.66,14.66,23.66-23.66-14.66-14.66-23.66,23.66Z" fill="#c1272d"/>
          <path d="M952.51,38.82l-8.52-7.73,7.73-8.52,8.52,7.73-7.73,8.52ZM947.3,30.93l5.05,4.58,4.58-5.05-5.05-4.58-4.58,5.05Z" fill="#c1272d"/>
          <path d="M938.95,53h-18.1l8.77-9.67,9.33,9.67ZM926.14,50.65h7.3l-3.76-3.9-3.54,3.9Z" fill="#c1272d"/>
          <path d="M929.62,18.03l-8.77-9.67h18.1l-9.33,9.67ZM926.14,10.7l3.54,3.9,3.76-3.9h-7.3Z" fill="#c1272d"/>
        </g>
        <g>
          <path d="M998.59,53.18l-26.97-26.97,17.97-17.97,26.97,26.97-17.97,17.97ZM974.94,26.21l23.66,23.66,14.66-14.66-23.66-23.66-14.66,14.66Z" fill="#c1272d"/>
          <path d="M989.59,53.18l-17.97-17.97,26.97-26.97,17.97,17.97-26.97,26.97ZM974.94,35.21l14.66,14.66,23.66-23.66-14.66-14.66-23.66,23.66Z" fill="#c1272d"/>
          <path d="M994.49,38.84l-8.52-7.73,7.73-8.52,8.52,7.73-7.73,8.52ZM989.28,30.95l5.05,4.58,4.58-5.05-5.05-4.58-4.58,5.05Z" fill="#c1272d"/>
          <path d="M980.93,53.01h-18.1l8.77-9.67,9.33,9.67ZM968.12,50.67h7.3l-3.76-3.9-3.54,3.9Z" fill="#c1272d"/>
          <path d="M971.61,18.05l-8.77-9.67h18.1l-9.33,9.67ZM968.12,10.72l3.54,3.9,3.76-3.9h-7.3Z" fill="#c1272d"/>
        </g>
      </g>
      <g>
        <g>
          <path d="M1040.77,53.17l-26.97-26.97,17.97-17.97,26.97,26.97-17.97,17.97ZM1017.11,26.19l23.66,23.66,14.66-14.66-23.66-23.66-14.66,14.66Z" fill="#c1272d"/>
          <path d="M1031.77,53.17l-17.97-17.97,26.97-26.97,17.97,17.97-26.97,26.97ZM1017.11,35.2l14.66,14.66,23.66-23.66-14.66-14.66-23.66,23.66Z" fill="#c1272d"/>
          <path d="M1036.67,38.82l-8.52-7.73,7.73-8.52,8.52,7.73-7.73,8.52ZM1031.46,30.93l5.05,4.58,4.58-5.05-5.05-4.58-4.58,5.05Z" fill="#c1272d"/>
          <path d="M1024.92,53h-18.1l8.77-9.67,9.33,9.67ZM1012.11,50.66h7.3l-3.76-3.9-3.54,3.9Z" fill="#c1272d"/>
          <path d="M1015.59,18.06l-8.77-9.67h18.1l-9.33,9.67ZM1012.11,10.73l3.54,3.9,3.76-3.9h-7.3Z" fill="#c1272d"/>
        </g>
        <g>
          <path d="M1083.11,53.19l-26.97-26.97,17.97-17.97,26.97,26.97-17.97,17.97ZM1059.45,26.22l23.66,23.66,14.66-14.66-23.66-23.66-14.66,14.66Z" fill="#c1272d"/>
          <path d="M1074.11,53.19l-17.97-17.97,26.97-26.97,17.97,17.97-26.97,26.97ZM1059.45,35.22l14.66,14.66,23.66-23.66-14.66-14.66-23.66,23.66Z" fill="#c1272d"/>
          <path d="M1079.01,38.84l-8.52-7.73,7.73-8.52,8.52,7.73-7.73,8.52ZM1073.8,30.96l5.05,4.58,4.58-5.05-5.05-4.58-4.58,5.05Z" fill="#c1272d"/>
          <path d="M1066.9,52.68h-18.1l8.77-9.67,9.33,9.67ZM1054.09,50.34h7.3l-3.76-3.9-3.54,3.9Z" fill="#c1272d"/>
          <path d="M1057.58,18.05l-8.77-9.67h18.1l-9.33,9.67ZM1054.09,10.72l3.54,3.9,3.76-3.9h-7.3Z" fill="#c1272d"/>
        </g>
        <g>
          <path d="M1126.19,53.34l-26.97-26.97,17.97-17.97,26.97,26.97-17.97,17.97ZM1102.53,26.37l23.66,23.66,14.66-14.66-23.66-23.66-14.66,14.66Z" fill="#c1272d"/>
          <path d="M1117.19,53.34l-17.97-17.97,26.97-26.97,17.97,17.97-26.97,26.97ZM1102.53,35.38l14.66,14.66,23.66-23.66-14.66-14.66-23.66,23.66Z" fill="#c1272d"/>
          <path d="M1122.08,39l-8.52-7.73,7.73-8.52,8.52,7.73-7.73,8.52ZM1116.87,31.11l5.05,4.58,4.58-5.05-5.05-4.58-4.58,5.05Z" fill="#c1272d"/>
          <path d="M1109.98,52.83h-18.1l8.77-9.67,9.33,9.67ZM1097.17,50.49h7.3l-3.76-3.9-3.54,3.9Z" fill="#c1272d"/>
          <path d="M1100.65,18.2l-8.77-9.67h18.1l-9.33,9.67ZM1097.17,10.87l3.54,3.9,3.76-3.9h-7.3Z" fill="#c1272d"/>
        </g>
      </g>
      <g>
        <g>
          <path d="M1168.1,53.17l-26.97-26.97,17.97-17.97,26.97,26.97-17.97,17.97ZM1144.44,26.19l23.66,23.66,14.66-14.66-23.66-23.66-14.66,14.66Z" fill="#c1272d"/>
          <path d="M1159.1,53.17l-17.97-17.97,26.97-26.97,17.97,17.97-26.97,26.97ZM1144.44,35.2l14.66,14.66,23.66-23.66-14.66-14.66-23.66,23.66Z" fill="#c1272d"/>
          <path d="M1164,38.82l-8.52-7.73,7.73-8.52,8.52,7.73-7.73,8.52ZM1158.79,30.93l5.05,4.58,4.58-5.05-5.05-4.58-4.58,5.05Z" fill="#c1272d"/>
          <path d="M1152.25,53h-18.1l8.77-9.67,9.33,9.67ZM1139.44,50.66h7.3l-3.76-3.9-3.54,3.9Z" fill="#c1272d"/>
          <path d="M1142.93,18.06l-8.77-9.67h18.1l-9.33,9.67ZM1139.44,10.73l3.54,3.9,3.76-3.9h-7.3Z" fill="#c1272d"/>
        </g>
        <g>
          <path d="M1210.45,53.19l-26.97-26.97,17.97-17.97,26.97,26.97-17.97,17.97ZM1186.79,26.22l23.66,23.66,14.66-14.66-23.66-23.66-14.66,14.66Z" fill="#c1272d"/>
          <path d="M1201.44,53.19l-17.97-17.97,26.97-26.97,17.97,17.97-26.97,26.97ZM1186.79,35.22l14.66,14.66,23.66-23.66-14.66-14.66-23.66,23.66Z" fill="#c1272d"/>
          <path d="M1206.34,38.84l-8.52-7.73,7.73-8.52,8.52,7.73-7.73,8.52ZM1201.13,30.96l5.05,4.58,4.58-5.05-5.05-4.58-4.58,5.05Z" fill="#c1272d"/>
          <path d="M1194.23,52.68h-18.1l8.77-9.67,9.33,9.67ZM1181.43,50.34h7.3l-3.76-3.9-3.54,3.9Z" fill="#c1272d"/>
          <path d="M1184.91,18.05l-8.77-9.67h18.1l-9.33,9.67ZM1181.43,10.72l3.54,3.9,3.76-3.9h-7.3Z" fill="#c1272d"/>
        </g>
      </g>
    </g>
    <g>
      <g>
        <g>
          <path d="M1253.47,53.07l-26.97-26.97,17.97-17.97,26.97,26.97-17.97,17.97ZM1229.81,26.1l23.66,23.66,14.66-14.66-23.66-23.66-14.66,14.66Z" fill="#c1272d"/>
          <path d="M1244.47,53.07l-17.97-17.97,26.97-26.97,17.97,17.97-26.97,26.97ZM1229.81,35.1l14.66,14.66,23.66-23.66-14.66-14.66-23.66,23.66Z" fill="#c1272d"/>
          <path d="M1249.36,38.72l-8.52-7.73,7.73-8.52,8.52,7.73-7.73,8.52ZM1244.16,30.84l5.05,4.58,4.58-5.05-5.05-4.58-4.58,5.05Z" fill="#c1272d"/>
          <path d="M1235.81,52.9h-18.1l8.77-9.67,9.33,9.67ZM1223,50.56h7.3l-3.76-3.9-3.54,3.9Z" fill="#c1272d"/>
          <path d="M1226.48,17.94l-8.77-9.67h18.1l-9.33,9.67ZM1223,10.61l3.54,3.9,3.76-3.9h-7.3Z" fill="#c1272d"/>
        </g>
        <g>
          <path d="M1295.45,53.09l-26.97-26.97,17.97-17.97,26.97,26.97-17.97,17.97ZM1271.79,26.12l23.66,23.66,14.66-14.66-23.66-23.66-14.66,14.66Z" fill="#c1272d"/>
          <path d="M1286.45,53.09l-17.97-17.97,26.97-26.97,17.97,17.97-26.97,26.97ZM1271.79,35.12l14.66,14.66,23.66-23.66-14.66-14.66-23.66,23.66Z" fill="#c1272d"/>
          <path d="M1291.35,38.74l-8.52-7.73,7.73-8.52,8.52,7.73-7.73,8.52ZM1286.14,30.85l5.05,4.58,4.58-5.05-5.05-4.58-4.58,5.05Z" fill="#c1272d"/>
          <path d="M1277.79,52.92h-18.1l8.77-9.67,9.33,9.67ZM1264.98,50.58h7.3l-3.76-3.9-3.54,3.9Z" fill="#c1272d"/>
          <path d="M1268.46,17.95l-8.77-9.67h18.1l-9.33,9.67ZM1264.98,10.63l3.54,3.9,3.76-3.9h-7.3Z" fill="#c1272d"/>
        </g>
      </g>
      <g>
        <g>
          <path d="M1337.63,53.07l-26.97-26.97,17.97-17.97,26.97,26.97-17.97,17.97ZM1313.97,26.1l23.66,23.66,14.66-14.66-23.66-23.66-14.66,14.66Z" fill="#c1272d"/>
          <path d="M1328.63,53.07l-17.97-17.97,26.97-26.97,17.97,17.97-26.97,26.97ZM1313.97,35.1l14.66,14.66,23.66-23.66-14.66-14.66-23.66,23.66Z" fill="#c1272d"/>
          <path d="M1333.52,38.72l-8.52-7.73,7.73-8.52,8.52,7.73-7.73,8.52ZM1328.31,30.84l5.05,4.58,4.58-5.05-5.05-4.58-4.58,5.05Z" fill="#c1272d"/>
          <path d="M1321.78,52.91h-18.1l8.77-9.67,9.33,9.67ZM1308.97,50.57h7.3l-3.76-3.9-3.54,3.9Z" fill="#c1272d"/>
          <path d="M1312.45,17.96l-8.77-9.67h18.1l-9.33,9.67ZM1308.97,10.64l3.54,3.9,3.76-3.9h-7.3Z" fill="#c1272d"/>
        </g>
        <g>
          <path d="M1379.97,53.1l-26.97-26.97,17.97-17.97,26.97,26.97-17.97,17.97ZM1356.31,26.13l23.66,23.66,14.66-14.66-23.66-23.66-14.66,14.66Z" fill="#c1272d"/>
          <path d="M1370.97,53.1l-17.97-17.97,26.97-26.97,17.97,17.97-26.97,26.97ZM1356.31,35.13l14.66,14.66,23.66-23.66-14.66-14.66-23.66,23.66Z" fill="#c1272d"/>
          <path d="M1375.87,38.75l-8.52-7.73,7.73-8.52,8.52,7.73-7.73,8.52ZM1370.66,30.86l5.05,4.58,4.58-5.05-5.05-4.58-4.58,5.05Z" fill="#c1272d"/>
          <path d="M1363.76,52.59h-18.1l8.77-9.67,9.33,9.67ZM1350.95,50.25h7.3l-3.76-3.9-3.54,3.9Z" fill="#c1272d"/>
          <path d="M1354.43,17.95l-8.77-9.67h18.1l-9.33,9.67ZM1350.95,10.63l3.54,3.9,3.76-3.9h-7.3Z" fill="#c1272d"/>
        </g>
      </g>
      <g>
        <path d="M1422.6,53.08l-26.97-26.97,17.97-17.97,26.97,26.97-17.97,17.97ZM1398.94,26.11l23.66,23.66,14.66-14.66-23.66-23.66-14.66,14.66Z" fill="#c1272d"/>
        <path d="M1413.6,53.08l-17.97-17.97,26.97-26.97,17.97,17.97-26.97,26.97ZM1398.94,35.11l14.66,14.66,23.66-23.66-14.66-14.66-23.66,23.66Z" fill="#c1272d"/>
        <path d="M1418.49,38.73l-8.52-7.73,7.73-8.52,8.52,7.73-7.73,8.52ZM1413.28,30.85l5.05,4.58,4.58-5.05-5.05-4.58-4.58,5.05Z" fill="#c1272d"/>
        <path d="M1404.94,52.91h-18.1l8.77-9.67,9.33,9.67ZM1392.12,50.57h7.3l-3.76-3.9-3.54,3.9Z" fill="#c1272d"/>
        <path d="M1395.61,17.94l-8.77-9.67h18.1l-9.33,9.67ZM1392.12,10.62l3.54,3.9,3.76-3.9h-7.3Z" fill="#c1272d"/>
      </g>
    </g>
    <g>
      <g>
        <path d="M702.06,53.15l-26.97-26.97,17.97-17.97,26.97,26.97-17.97,17.97ZM678.4,26.18l23.66,23.66,14.66-14.66-23.66-23.66-14.66,14.66Z" fill="#c1272d"/>
        <path d="M693.06,53.15l-17.97-17.97,26.97-26.97,17.97,17.97-26.97,26.97ZM678.4,35.18l14.66,14.66,23.66-23.66-14.66-14.66-23.66,23.66Z" fill="#c1272d"/>
        <path d="M697.95,38.81l-8.52-7.73,7.73-8.52,8.52,7.73-7.73,8.52ZM692.74,30.92l5.05,4.58,4.58-5.05-5.05-4.58-4.58,5.05Z" fill="#c1272d"/>
        <path d="M684.39,52.98h-18.1l8.77-9.67,9.32,9.67ZM671.58,50.64h7.3l-3.76-3.9-3.54,3.9Z" fill="#c1272d"/>
        <path d="M675.07,18.02l-8.77-9.67h18.1l-9.32,9.67ZM671.58,10.69l3.54,3.9,3.76-3.9h-7.3Z" fill="#c1272d"/>
      </g>
      <g>
        <path d="M744.04,53.17l-26.97-26.97,17.97-17.97,26.97,26.97-17.97,17.97ZM720.38,26.2l23.66,23.66,14.66-14.66-23.66-23.66-14.66,14.66Z" fill="#c1272d"/>
        <path d="M735.04,53.17l-17.97-17.97,26.97-26.97,17.97,17.97-26.97,26.97ZM720.38,35.2l14.66,14.66,23.66-23.66-14.66-14.66-23.66,23.66Z" fill="#c1272d"/>
        <path d="M739.93,38.82l-8.52-7.73,7.73-8.52,8.52,7.73-7.73,8.52ZM734.72,30.93l5.05,4.58,4.58-5.05-5.05-4.58-4.58,5.05Z" fill="#c1272d"/>
        <path d="M726.37,53h-18.09l8.77-9.67,9.33,9.67ZM713.57,50.66h7.3l-3.76-3.9-3.54,3.9Z" fill="#c1272d"/>
        <path d="M717.05,18.03l-8.77-9.67h18.09l-9.33,9.67ZM713.57,10.71l3.54,3.9,3.76-3.9h-7.3Z" fill="#c1272d"/>
      </g>
    </g>
  </g>
</svg>